<svg width="70" height="44" viewBox="0 0 70 44" fill="none" xmlns="http://www.w3.org/2000/svg">
<rect width="70" height="44" rx="22" fill="#4285F4"/>
<path d="M17.8416 26V17.2727H19.1584V21.0653H23.5092V17.2727H24.8303V26H23.5092V22.1946H19.1584V26H17.8416ZM28.5504 26.1449C28.1357 26.1449 27.7607 26.0682 27.4254 25.9148C27.0902 25.7585 26.8246 25.5327 26.6286 25.2372C26.4354 24.9418 26.3388 24.5795 26.3388 24.1506C26.3388 23.7812 26.4098 23.4773 26.5518 23.2386C26.6939 23 26.8857 22.8111 27.1271 22.6719C27.3686 22.5327 27.6385 22.4276 27.9368 22.3565C28.2351 22.2855 28.5391 22.2315 28.8487 22.1946C29.2408 22.1491 29.5589 22.1122 29.8033 22.0838C30.0476 22.0526 30.2251 22.0028 30.3359 21.9347C30.4467 21.8665 30.5021 21.7557 30.5021 21.6023V21.5724C30.5021 21.2003 30.397 20.9119 30.1868 20.7074C29.9794 20.5028 29.6697 20.4006 29.2578 20.4006C28.8288 20.4006 28.4908 20.4957 28.2436 20.6861C27.9993 20.8736 27.8303 21.0824 27.7365 21.3125L26.5391 21.0398C26.6811 20.642 26.8885 20.321 27.1612 20.0767C27.4368 19.8295 27.7536 19.6506 28.1115 19.5398C28.4695 19.4261 28.8459 19.3693 29.2408 19.3693C29.5021 19.3693 29.7791 19.4006 30.0717 19.4631C30.3672 19.5227 30.6428 19.6335 30.8984 19.7955C31.157 19.9574 31.3686 20.1889 31.5334 20.4901C31.6982 20.7884 31.7805 21.1761 31.7805 21.6534V26H30.5362V25.1051H30.4851C30.4027 25.2699 30.2791 25.4318 30.1143 25.5909C29.9496 25.75 29.7379 25.8821 29.4794 25.9872C29.2209 26.0923 28.9112 26.1449 28.5504 26.1449ZM28.8274 25.1222C29.1797 25.1222 29.4808 25.0526 29.7308 24.9134C29.9837 24.7741 30.1754 24.5923 30.3061 24.3679C30.4396 24.1406 30.5064 23.8977 30.5064 23.6392V22.7955C30.4609 22.8409 30.3729 22.8835 30.2422 22.9233C30.1143 22.9602 29.968 22.9929 29.8033 23.0213C29.6385 23.0469 29.478 23.071 29.3217 23.0938C29.1655 23.1136 29.0348 23.1307 28.9297 23.1449C28.6825 23.1761 28.4567 23.2287 28.2521 23.3026C28.0504 23.3764 27.8885 23.483 27.7663 23.6222C27.647 23.7585 27.5874 23.9403 27.5874 24.1676C27.5874 24.483 27.7038 24.7216 27.9368 24.8835C28.1697 25.0426 28.4666 25.1222 28.8274 25.1222ZM34.7262 24.2145L37.6112 19.4545H38.9833V26H37.7347V21.2358L34.8626 26H33.4776V19.4545H34.7262V24.2145ZM37.0657 17.2386H38.114C38.114 17.7187 37.9435 18.1094 37.6026 18.4105C37.2646 18.7088 36.8072 18.858 36.2305 18.858C35.6566 18.858 35.2006 18.7088 34.8626 18.4105C34.5245 18.1094 34.3555 17.7187 34.3555 17.2386H35.3995C35.3995 17.4517 35.462 17.6406 35.587 17.8054C35.712 17.9673 35.9265 18.0483 36.2305 18.0483C36.5288 18.0483 36.7418 17.9673 36.8697 17.8054C37.0004 17.6435 37.0657 17.4545 37.0657 17.2386ZM39.8846 20.554V19.4545H45.4073V20.554H43.2724V26H42.0281V20.554H39.8846ZM48.0036 24.2145L50.8885 19.4545H52.2607V26H51.0121V21.2358L48.1399 26H46.755V19.4545H48.0036V24.2145Z" fill="white"/>
</svg>
